HIERARCHY
ROOT hip
{
  OFFSET 0 0 0
  CHANNELS 6 Xposition Yposition Zposition Zrotation Yrotation Xrotation
  JOINT abdomen
  {
    OFFSET 0 20.6881 -0.73152
    CHANNELS 3 Zrotation Xrotation Yrotation
    JOINT chest
    {
      OFFSET 0 11.7043 -0.48768
      CHANNELS 3 Zrotation Xrotation Yrotation
      JOINT neck
      {
        OFFSET 0 22.1894 -2.19456
        CHANNELS 3 Zrotation Xrotation Yrotation
        JOINT head
        {
          OFFSET -0.24384 7.07133 1.2192
          CHANNELS 3 Zrotation Xrotation Yrotation
          JOINT leftEye
          {
            OFFSET 4.14528 8.04674 8.04672
            CHANNELS 3 Zrotation Xrotation Yrotation
            End Site
            {
              OFFSET 1 0 0
            }
          }
          JOINT rightEye
          {
            OFFSET -3.6576 8.04674 8.04672
            CHANNELS 3 Zrotation Xrotation Yrotation
            End Site
            {
              OFFSET 1 0 0
            }
          }
        }
      }
      JOINT rCollar
      {
        OFFSET -2.68224 19.2634 -4.8768
        CHANNELS 3 Zrotation Xrotation Yrotation
        JOINT rShldr
        {
          OFFSET -8.77824 -1.95073 1.46304
          CHANNELS 3 Zrotation Xrotation Yrotation
          JOINT rForeArm
          {
            OFFSET -28.1742 -1.7115 0.48768
            CHANNELS 3 Zrotation Xrotation Yrotation
            JOINT rHand
            {
              OFFSET -22.5879 0.773209 7.07136
              CHANNELS 3 Zrotation Xrotation Yrotation
              JOINT rThumb1
              {
                OFFSET -1.2192 -0.487915 3.41376
                CHANNELS 3 Zrotation Xrotation Yrotation
                JOINT rThumb2
                {
                  OFFSET -3.37035 -0.52449 3.41376
                  CHANNELS 3 Zrotation Xrotation Yrotation
                  End Site
                  {
                    OFFSET -1.78271 -1.18214 1.43049
                  }
                }
              }
              JOINT rIndex1
              {
                OFFSET -7.75947 0.938293 5.60832
                CHANNELS 3 Zrotation Xrotation Yrotation
                JOINT rIndex2
                {
                  OFFSET -2.54057 -0.884171 1.56538
                  CHANNELS 3 Zrotation Xrotation Yrotation
                  End Site
                  {
                    OFFSET -1.62519 -0.234802 1.16502
                  }
                }
              }
              JOINT rMid1
              {
                OFFSET -8.24714 1.18213 3.41376
                CHANNELS 3 Zrotation Xrotation Yrotation
                JOINT rMid2
                {
                  OFFSET -3.10165 -0.590103 1.0647
                  CHANNELS 3 Zrotation Xrotation Yrotation
                  End Site
                  {
                    OFFSET -2.48547 -0.328903 0.83742
                  }
                }
              }
              JOINT rRing1
              {
                OFFSET -8.82822 0.546677 1.51678
                CHANNELS 3 Zrotation Xrotation Yrotation
                JOINT rRing2
                {
                  OFFSET -2.60934 -0.819778 -0.0198488
                  CHANNELS 3 Zrotation Xrotation Yrotation
                  End Site
                  {
                    OFFSET -2.33842 -0.294052 0.168128
                  }
                }
              }
              JOINT rPinky1
              {
                OFFSET -8.27202 -0.0477905 -0.4584
                CHANNELS 3 Zrotation Xrotation Yrotation
                JOINT rPinky2
                {
                  OFFSET -1.82734 -0.647385 -0.700984
                  CHANNELS 3 Zrotation Xrotation Yrotation
                  End Site
                  {
                    OFFSET -1.69225 -0.51767 -0.607171
                  }
                }
              }
            }
          }
        }
      }
      JOINT lCollar
      {
        OFFSET 2.68224 19.2634 -4.8768
        CHANNELS 3 Zrotation Xrotation Yrotation
        JOINT lShldr
        {
          OFFSET 8.77824 -1.95073 1.46304
          CHANNELS 3 Zrotation Xrotation Yrotation
          JOINT lForeArm
          {
            OFFSET 28.1742 -1.7115 0.48768
            CHANNELS 3 Zrotation Xrotation Yrotation
            JOINT lHand
            {
              OFFSET 22.5879 0.773209 7.07136
              CHANNELS 3 Zrotation Xrotation Yrotation
              JOINT lThumb1
              {
                OFFSET 1.2192 -0.487915 3.41376
                CHANNELS 3 Zrotation Xrotation Yrotation
                JOINT lThumb2
                {
                  OFFSET 3.37035 -0.52449 3.41376
                  CHANNELS 3 Zrotation Xrotation Yrotation
                  End Site
                  {
                    OFFSET 1.78271 -1.18214 1.43049
                  }
                }
              }
              JOINT lIndex1
              {
                OFFSET 7.75947 0.938293 5.60832
                CHANNELS 3 Zrotation Xrotation Yrotation
                JOINT lIndex2
                {
                  OFFSET 2.54057 -0.884171 1.56538
                  CHANNELS 3 Zrotation Xrotation Yrotation
                  End Site
                  {
                    OFFSET 1.62519 -0.234802 1.16502
                  }
                }
              }
              JOINT lMid1
              {
                OFFSET 8.24714 1.18213 3.41376
                CHANNELS 3 Zrotation Xrotation Yrotation
                JOINT lMid2
                {
                  OFFSET 3.10165 -0.590103 1.0647
                  CHANNELS 3 Zrotation Xrotation Yrotation
                  End Site
                  {
                    OFFSET 2.48547 -0.328903 0.83742
                  }
                }
              }
              JOINT lRing1
              {
                OFFSET 8.82822 0.546677 1.51678
                CHANNELS 3 Zrotation Xrotation Yrotation
                JOINT lRing2
                {
                  OFFSET 2.60934 -0.819778 -0.0198488
                  CHANNELS 3 Zrotation Xrotation Yrotation
                  End Site
                  {
                    OFFSET 2.33842 -0.294052 0.168128
                  }
                }
              }
              JOINT lPinky1
              {
                OFFSET 8.27202 -0.0477905 -0.4584
                CHANNELS 3 Zrotation Xrotation Yrotation
                JOINT lPinky2
                {
                  OFFSET 1.82734 -0.647385 -0.700984
                  CHANNELS 3 Zrotation Xrotation Yrotation
                  End Site
                  {
                    OFFSET 1.69225 -0.51767 -0.607171
                  }
                }
              }
            }
          }
        }
      }
    }
  }
  JOINT rButtock
  {
    OFFSET -8.77824 4.35084 1.2192
    CHANNELS 3 Zrotation Xrotation Yrotation
    JOINT rThigh
    {
      OFFSET 0 -1.70687 -2.19456
      CHANNELS 3 Zrotation Xrotation Yrotation
      JOINT rShin
      {
        OFFSET 0 -36.8199 0.73152
        CHANNELS 3 Zrotation Xrotation Yrotation
        JOINT rFoot
        {
          OFFSET 0.73152 -45.1104 -5.12064
          CHANNELS 3 Zrotation Xrotation Yrotation
          End Site
          {
            OFFSET -1.1221 -3.69964 12.103
          }
        }
      }
    }
  }
  JOINT lButtock
  {
    OFFSET 8.77824 4.35084 1.2192
    CHANNELS 3 Zrotation Xrotation Yrotation
    JOINT lThigh
    {
      OFFSET 0 -1.70687 -2.19456
      CHANNELS 3 Zrotation Xrotation Yrotation
      JOINT lShin
      {
        OFFSET 0 -36.8199 0.73152
        CHANNELS 3 Zrotation Xrotation Yrotation
        JOINT lFoot
        {
          OFFSET -0.73152 -45.1104 -5.12064
          CHANNELS 3 Zrotation Xrotation Yrotation
          End Site
          {
            OFFSET 1.1221 -3.69964 12.103
          }
        }
      }
    }
  }
}
MOTION
Frames:	8
Frame Time:	0.00833333
2.2257 84.8033 -101.908 0.0 0.0 0.0 -0.305091 -0.00406112 -0.00879786 -0.0843778 -0.00666577 -0.0146213 2.2158e-15 0.0 1.2424e-17 6.63754e-15 3.18055e-15 3.10601e-17 -0.0 0.0 0.0 -0.0 0.0 0.0 1.0921e-15 1.26182e-17 1.49089e-16 2.502e-14 3.16813e-16 9.93923e-16 3.97917e-13 -1.06549e-13 9.54166e-15 4.51267e-12 1.73837e-13 2.22639e-14 1.06478e-11 1.45776e-13 6.67917e-14 1.83764e-11 2.51264e-13 1.08139e-13 1.06521e-11 1.45908e-13 6.36111e-14 7.73091 5.47488 0.417314 1.06475e-11 1.45809e-13 6.67917e-14 2.90554 0.965183 0.102902 1.06514e-11 1.46007e-13 6.67917e-14 10.2786 0.731801 0.0259123 1.06437e-11 1.47101e-13 7.31528e-14 2.22167 -0.733487 -0.20892 9.95214e-16 1.18417e-17 -1.49089e-16 2.11118e-14 3.23025e-16 -5.96354e-16 3.92351e-13 1.27421e-13 -9.54166e-15 4.5085e-12 -7.05934e-14 4.77083e-14 1.06337e-11 1.22274e-13 6.67917e-14 1.83653e-11 2.09917e-13 1.19271e-13 1.06314e-11 1.23246e-13 8.26944e-14 -7.73091 5.47488 -0.417314 1.06352e-11 1.21954e-13 6.67917e-14 -2.90554 0.965183 -0.102902 1.06295e-11 1.22153e-13 6.91771e-14 -10.2786 0.731801 -0.0259123 1.06403e-11 1.24042e-13 6.04305e-14 -2.22167 -0.733487 0.20892 -2.03217e-16 0.0 -3.88251e-19 0.199475 -2.70344 -0.028874 -0.0065643 -0.653377 -0.05737 -0.430097 3.35782 0.115518 2.03217e-16 0.0 3.88251e-19 -0.66714 -3.93837 0.0583909 0.00310795 1.58347 0.0241606 0.437697 2.35595 -0.0966752
1.50478 81.7858 -103.711 2.7228 -22.195 8.4083 -1.42478 -2.89065 -0.956031 0.0605318 -1.20107 -0.256595 1.40249 0.0336325 -0.418753 -1.17113 2.93612 -1.19225 -0.0 0.0 0.0 -0.0 0.0 0.0 5.10071e-14 7.35672e-15 1.68831e-13 19.9815 5.08963 -3.97968 -4.80264 -2.31226 7.35475 0.00236219 1.07813 0.151424 -9.25826e-10 9.91727e-10 3.25199e-10 -1.59994e-09 1.71733e-09 5.67106e-10 -9.25822e-10 9.91728e-10 3.25192e-10 7.73091 5.47488 0.417314 -9.25826e-10 9.91728e-10 3.25199e-10 2.90554 0.965183 0.102902 -9.25822e-10 9.91728e-10 3.252e-10 10.2786 0.731801 0.0259123 -9.25831e-10 9.91728e-10 3.2521e-10 2.22167 -0.733487 -0.20892 5.09262e-14 7.35854e-15 1.68549e-13 -20.2892 13.0591 5.35128 27.7269 -25.1844 -13.4249 -0.00690523 -1.84358 0.258614 -1.73745e-10 -3.32098e-10 -3.00948e-10 -2.99855e-10 -5.76884e-10 -5.21038e-10 -1.73747e-10 -3.32095e-10 -3.0093e-10 -7.73091 5.47488 -0.417314 -1.73742e-10 -3.32095e-10 -3.00946e-10 -2.90554 0.965183 -0.102902 -1.73751e-10 -3.32089e-10 -3.00942e-10 -10.2786 0.731801 -0.0259123 -1.73741e-10 -3.32094e-10 -3.00953e-10 -2.22167 -0.733487 0.20892 -2.03217e-16 0.0 -3.88251e-19 -2.54591 -13.808 2.96756 0.0487944 11.2499 0.160443 -1.39901 -2.68423 -5.47356 2.03217e-16 0.0 3.88251e-19 -3.09296 -9.20746 -0.543854 -0.0945453 11.6183 -0.238304 1.48231 -4.90743 5.02134
1.34781 81.7881 -103.445 3.0052 -21.9663 8.2907 -2.71846 -5.92983 -1.96394 0.203004 -2.46584 -0.512153 2.89049 0.0719478 -0.862976 -2.27652 6.02069 -2.46737 -0.0 0.0 0.0 -0.0 0.0 0.0 1.05018e-13 1.8142e-14 3.55604e-13 41.8841 10.3868 -8.29174 -9.23927 -4.62919 15.167 -0.00134182 2.21829 0.311742 -1.93958e-09 2.07498e-09 6.59308e-10 -3.35189e-09 3.59306e-09 1.14998e-09 -1.93957e-09 2.07498e-09 6.59297e-10 7.73091 5.47488 0.417314 -1.93958e-09 2.07498e-09 6.59308e-10 2.90554 0.965183 0.102902 -1.93957e-09 2.07498e-09 6.59312e-10 10.2786 0.731801 0.0259123 -1.93958e-09 2.07498e-09 6.59324e-10 2.22167 -0.733487 -0.20892 1.04955e-13 1.81466e-14 3.5534e-13 -44.6453 26.4639 11.9898 39.6647 -46.458 -37.755 0.00393378 -3.79517 0.533289 -3.69307e-10 -7.5499e-10 -6.50547e-10 -6.37247e-10 -1.31115e-09 -1.12623e-09 -3.69309e-10 -7.54985e-10 -6.50527e-10 -7.73091 5.47488 -0.417314 -3.69304e-10 -7.54983e-10 -6.50542e-10 -2.90554 0.965183 -0.102902 -3.69315e-10 -7.5497e-10 -6.50538e-10 -10.2786 0.731801 -0.0259123 -3.69306e-10 -7.54983e-10 -6.5055e-10 -2.22167 -0.733487 0.20892 -2.03217e-16 0.0 -3.88251e-19 -4.06968 -25.4435 6.6084 0.00127792 23.8303 0.420219 -3.71062 -8.92491 -11.5099 2.03217e-16 0.0 3.88251e-19 -5.78524 -14.7938 -1.18604 -0.0903793 22.2327 -0.546039 4.01254 -12.4068 10.6293
1.08246 81.7902 -103.242 3.069 -21.8114 8.267 -3.95318 -8.65426 -2.87966 0.320035 -3.58963 -0.741828 4.20895 0.100876 -1.25626 -3.14337 8.793 -3.61458 -0.0 0.0 0.0 -0.0 0.0 0.0 1.50837e-13 2.20449e-14 5.06196e-13 62.1113 14.9693 -12.3161 -12.6664 -6.48058 22.1955 -0.0100324 3.23429 0.454917 -2.79877e-09 2.97489e-09 9.75462e-10 -4.83658e-09 5.15148e-09 1.7011e-09 -2.79877e-09 2.97489e-09 9.75448e-10 7.73091 5.47488 0.417314 -2.79877e-09 2.97489e-09 9.75462e-10 2.90554 0.965183 0.102902 -2.79877e-09 2.97489e-09 9.75468e-10 10.2786 0.731801 0.0259123 -2.79878e-09 2.97489e-09 9.75483e-10 2.22167 -0.733487 -0.20892 1.50788e-13 2.20519e-14 5.05946e-13 -69.69 37.6253 19.8971 31.222 -51.7828 -73.5128 0.0294094 -5.53029 0.779067 -5.42502e-10 -9.96539e-10 -9.02978e-10 -9.36297e-10 -1.73107e-09 -1.56335e-09 -5.42502e-10 -9.96532e-10 -9.02956e-10 -7.73091 5.47488 -0.417314 -5.42497e-10 -9.96528e-10 -9.0297e-10 -2.90554 0.965183 -0.102902 -5.42511e-10 -9.96511e-10 -9.02965e-10 -10.2786 0.731801 -0.0259123 -5.42502e-10 -9.9653e-10 -9.02979e-10 -2.22167 -0.733487 0.20892 -2.03217e-16 0.0 -3.88251e-19 -3.87632 -35.5916 10.7236 -0.159636 35.0546 0.71685 -6.90557 -14.1724 -17.1713 2.03217e-16 0.0 3.88251e-19 -8.29534 -19.7375 -1.83488 0.0269273 31.6854 -0.8797 7.58989 -18.7826 16.0794
0.757927 81.7929 -103.048 3.0046 -21.8057 8.2866 -4.83793 -10.6008 -3.53776 0.394847 -4.3612 -0.90557 5.10233 0.106362 -1.5222 -3.67526 10.7994 -4.40654 -0.0 0.0 0.0 -0.0 0.0 0.0 1.76178e-13 8.74187e-15 5.66338e-13 76.6044 18.0506 -15.2618 -14.7811 -7.60235 27.1394 -0.0190771 3.94002 0.554616 -3.27158e-09 3.41645e-09 1.24673e-09 -5.65307e-09 5.91663e-09 2.17283e-09 -3.27158e-09 3.41646e-09 1.24671e-09 7.73091 5.47488 0.417314 -3.27158e-09 3.41646e-09 1.24673e-09 2.90554 0.965183 0.102902 -3.27158e-09 3.41645e-09 1.24674e-09 10.2786 0.731801 0.0259123 -3.27159e-09 3.41645e-09 1.24675e-09 2.22167 -0.733487 -0.20892 1.7613e-13 8.7506e-15 5.66089e-13 -89.7591 44.6092 27.3541 26.3945 -45.4671 -94.4258 0.0557859 -6.7247 0.949502 -6.59774e-10 -7.8473e-10 -9.12488e-10 -1.13949e-09 -1.36516e-09 -1.58029e-09 -6.59775e-10 -7.8472e-10 -9.12466e-10 -7.73091 5.47488 -0.417314 -6.5977e-10 -7.84718e-10 -9.12479e-10 -2.90554 0.965183 -0.102902 -6.59784e-10 -7.84698e-10 -9.12474e-10 -10.2786 0.731801 -0.0259123 -6.59776e-10 -7.8472e-10 -9.12488e-10 -2.22167 -0.733487 0.20892 -2.03217e-16 0.0 -3.88251e-19 -2.54518 -42.4192 14.3977 -0.367698 42.8905 0.993255 -9.76601 -17.5308 -21.3425 2.03217e-16 0.0 3.88251e-19 -10.1128 -23.0809 -2.42798 0.191916 38.2365 -1.17062 10.9254 -22.9719 20.3194
0.469601 81.7988 -102.84 3.0196 -21.7175 8.2702 -5.15018 -11.4664 -3.81659 0.417184 -4.63716 -0.976148 5.39671 0.0749889 -1.61014 -3.84823 11.7472 -4.67676 -0.0 0.0 0.0 -0.0 0.0 0.0 1.67967e-13 -2.99914e-14 4.76219e-13 82.3557 19.2281 -16.4487 -15.5548 -7.99891 29.0918 -0.0233216 4.21893 0.594088 -3.09481e-09 3.09656e-09 1.40325e-09 -5.34641e-09 5.36389e-09 2.44309e-09 -3.09481e-09 3.09656e-09 1.40323e-09 7.73091 5.47488 0.417314 -3.09481e-09 3.09656e-09 1.40325e-09 2.90554 0.965183 0.102902 -3.09481e-09 3.09656e-09 1.40325e-09 10.2786 0.731801 0.0259123 -3.09482e-09 3.09656e-09 1.40327e-09 2.22167 -0.733487 -0.20892 1.67899e-13 -2.99818e-14 4.75952e-13 -98.4797 47.1074 30.967 26.4781 -41.5472 -99.863 0.0674829 -7.16199 1.01223 -6.71012e-10 5.4368e-11 -5.62669e-10 -1.16049e-09 8.80825e-11 -9.75706e-10 -6.71013e-10 5.43813e-11 -5.62649e-10 -7.73091 5.47488 -0.417314 -6.71007e-10 5.4379e-11 -5.62658e-10 -2.90554 0.965183 -0.102902 -6.71022e-10 5.43954e-11 -5.62656e-10 -10.2786 0.731801 -0.0259123 -6.71013e-10 5.43763e-11 -5.62669e-10 -2.22167 -0.733487 0.20892 -2.03217e-16 0.0 -3.88251e-19 -1.65124 -44.9506 16.0405 -0.479883 45.9814 1.12644 -11.0226 -18.6855 -23.0782 2.03217e-16 0.0 3.88251e-19 -10.8439 -24.1911 -2.8824 0.27857 40.7273 -1.30525 12.539 -24.5773 22.2586
0.16435 81.805 -102.635 3.002 -21.646 8.261 -5.02992 -11.5619 -3.8184 0.404423 -4.55931 -0.979937 5.26343 0.0174811 -1.57091 -3.7946 11.9417 -4.56636 -0.0 0.0 0.0 -0.0 0.0 0.0 1.36024e-13 -8.68252e-14 2.79898e-13 81.6902 19.1076 -16.3075 -15.478 -7.96268 28.8908 -0.0228896 4.19264 0.590365 -2.45923e-09 2.23847e-09 1.48027e-09 -4.24643e-09 3.87967e-09 2.57374e-09 -2.45924e-09 2.23847e-09 1.48026e-09 7.73091 5.47488 0.417314 -2.45924e-09 2.23847e-09 1.48027e-09 2.90554 0.965183 0.102902 -2.45923e-09 2.23847e-09 1.48028e-09 10.2786 0.731801 0.0259123 -2.45924e-09 2.23847e-09 1.48029e-09 2.22167 -0.733487 -0.20892 1.3592e-13 -8.68154e-14 2.79597e-13 -97.7525 46.9114 30.7492 26.4297 -41.9843 -99.2734 0.065111 -7.05857 0.997415 -6.07831e-10 1.34188e-09 4.28985e-11 -1.05362e-09 2.3186e-09 7.12436e-11 -6.07832e-10 1.3419e-09 4.2914e-11 -7.73091 5.47488 -0.417314 -6.07828e-10 1.34189e-09 4.29094e-11 -2.90554 0.965183 -0.102902 -6.0784e-10 1.3419e-09 4.29085e-11 -10.2786 0.731801 -0.0259123 -6.07831e-10 1.34189e-09 4.28977e-11 -2.22167 -0.733487 0.20892 -2.03217e-16 0.0 -3.88251e-19 -1.69957 -44.5364 15.7216 -0.467763 45.6839 1.11141 -10.8642 -18.3997 -22.9634 2.03217e-16 0.0 3.88251e-19 -10.7553 -23.7079 -3.21758 0.264347 40.3186 -1.29384 12.5692 -24.4935 22.375
-0.151008 81.8113 -102.431 2.9644 -21.5837 8.2568 -4.71965 -11.3465 -3.70775 0.382286 -4.3442 -0.95703 4.96469 -0.0439973 -1.48038 -3.66611 11.8294 -4.30188 -0.0 0.0 0.0 -0.0 0.0 0.0 1.02397e-13 -1.48752e-13 7.89008e-14 78.4535 18.4802 -15.6353 -15.0633 -7.75526 27.8327 -0.0204517 4.03222 0.567661 -1.81394e-09 1.35674e-09 1.60855e-09 -3.12945e-09 2.35456e-09 2.79306e-09 -1.81394e-09 1.35674e-09 1.60855e-09 7.73091 5.47488 0.417314 -1.81394e-09 1.35674e-09 1.60855e-09 2.90554 0.965183 0.102902 -1.81394e-09 1.35674e-09 1.60856e-09 10.2786 0.731801 0.0259123 -1.81395e-09 1.35674e-09 1.60856e-09 2.22167 -0.733487 -0.20892 1.02258e-13 -1.48743e-13 7.85673e-14 -93.2391 45.6476 28.9849 26.3347 -44.1575 -96.2637 0.0573136 -6.73955 0.951721 -5.59275e-10 2.82062e-09 7.1998e-10 -9.72427e-10 4.88058e-09 1.2419e-09 -5.59278e-10 2.82064e-09 7.19992e-10 -7.73091 5.47488 -0.417314 -5.59273e-10 2.82063e-09 7.19991e-10 -2.90554 0.965183 -0.102902 -5.59283e-10 2.82063e-09 7.19987e-10 -10.2786 0.731801 -0.0259123 -5.59273e-10 2.82063e-09 7.19978e-10 -2.22167 -0.733487 0.20892 -2.03217e-16 0.0 -3.88251e-19 -2.12159 -42.9443 14.5602 -0.406111 44.036 1.03649 -10.1096 -17.5459 -22.035 2.03217e-16 0.0 3.88251e-19 -10.3155 -22.5837 -3.51263 0.210175 38.7507 -1.22465 11.9594 -23.7461 21.7704
